HIERARCHY
ROOT ui
{
	 OFFSET 0 0 0
	 CHANNELS 3 XPosition YPosition Z Position
	 EndSite
	 {
	 OFFSET 0 -1 0
	 }
}
ROOT li
{
	 OFFSET 0 0 0
	 CHANNELS 3 XPosition YPosition Z Position
	 EndSite
	 {
	 OFFSET 0 -1 0
	 }
}
ROOT ul
{
	 OFFSET 0 0 0
	 CHANNELS 3 XPosition YPosition Z Position
	 EndSite
	 {
	 OFFSET 0 -1 0
	 }
}
ROOT ll
{
	 OFFSET 0 0 0
	 CHANNELS 3 XPosition YPosition Z Position
	 EndSite
	 {
	 OFFSET 0 -1 0
	 }
}
ROOT tt
{
	 OFFSET 0 0 0
	 CHANNELS 3 XPosition YPosition Z Position
	 EndSite
	 {
	 OFFSET 0 -1 0
	 }
}
ROOT tb
{
	 OFFSET 0 0 0
	 CHANNELS 3 XPosition YPosition Z Position
	 EndSite
	 {
	 OFFSET 0 -1 0
	 }
}
ROOT td
{
	 OFFSET 0 0 0
	 CHANNELS 3 XPosition YPosition Z Position
	 EndSite
	 {
	 OFFSET 0 -1 0
	 }
}
ROOT v
{
	 OFFSET 0 0 0
	 CHANNELS 3 XPosition YPosition Z Position
	 EndSite
	 {
	 OFFSET 0 -1 0
	 }
}
ROOT bn
{
	 OFFSET 0 0 0
	 CHANNELS 3 XPosition YPosition Z Position
	 EndSite
	 {
	 OFFSET 0 -1 0
	 }
}
MOTION
Frames: 10
Frame Time: 0.002
-5.673980116844177E-4	4.605189859867096E-4	0		0.446345703125	-2.39137841796875	0		-1.0600560302734374	-0.01975754737854004	0		-0.7911083984375	-2.467616943359375	0		1.2303896484375	-0.7273051147460937	0		3.10627294921875	-0.09470491027832031	0		4.63676220703125	-0.07839370727539062	0		5.65115234375	0.17461419677734374	0		-0.025731765747070312	6.0077294921875	0		
0.002497296094894409	0.0028034729957580567	0		0.468415283203125	-2.382376953125	0		-1.0468590087890626	-0.009535218238830566	0		-0.8210518188476562	-2.45868310546875	0		1.2364876708984376	-0.7210699462890625	0		3.113803955078125	-0.06457644653320313	0		4.63500927734375	-0.065181884765625	0		5.6511748046875	0.17374758911132812	0		-0.011223432540893554	6.01988671875	0		
-0.0014109779596328735	0.007275032997131348	0		0.45742437744140624	-2.376806884765625	0		-0.98997900390625	-0.018047065734863282	0		-0.7652242431640625	-2.46418798828125	0		1.2303466796875	-0.7286149291992188	0		3.081322998046875	-0.09375868225097657	0		4.64291064453125	-0.07210647583007812	0		5.6470546875	0.16498294067382813	0		-0.043312877655029294	5.9988349609375	0		
-0.001413462996482849	0.006697434902191162	0		0.4621106567382812	-2.39048486328125	0		-1.0718692626953126	-0.011201114654541015	0		-0.8273456420898437	-2.465687744140625	0		1.2303162841796875	-0.7292393798828125	0		3.07952001953125	-0.08242138671875	0		4.63392333984375	-0.0717085952758789	0		5.6419404296875	0.15727613830566406	0		-0.0421046028137207	5.9972421875	0		
-0.005493966102600098	0.0022107698917388915	0		0.46406704711914065	-2.38808984375	0		-1.06596875	-0.01682098388671875	0		-0.7914983520507812	-2.469824462890625	0		1.227210693359375	-0.7337845458984374	0		3.0972978515625	-0.09538365936279297	0		4.62778955078125	-0.07931731414794922	0		5.6470498046875	0.1634449920654297	0		-0.007819003105163574	6.00211181640625	0		
-0.005518896102905273	0.0016822619438171386	0		0.4390435791015625	-2.384208251953125	0		-1.0619268798828125	-0.013386896133422851	0		-0.8234722900390625	-2.46278759765625	0		1.230231689453125	-0.730400634765625	0		3.10169384765625	-0.07107459259033203	0		4.63672705078125	-0.08213408660888671	0		5.6511650390625	0.17068179321289062	0		-0.01037910270690918	6.0186318359375	0		
-0.0014876229763031005	0.005114445209503174	0		0.46794393920898436	-2.38521142578125	0		-1.0569132080078125	-0.010945314407348633	0		-0.7855921630859375	-2.46491259765625	0		1.2332279052734374	-0.7279820556640625	0		3.088402587890625	-0.08642787933349609	0		4.64592578125	-0.06890371704101562	0		5.6552685546875	0.1779728240966797	0		0.00762968111038208	6.01182763671875	0		
-0.0015336259603500365	0.004646492958068848	0		0.43000738525390625	-2.376043701171875	0		-1.066077392578125	-0.018237325668334962	0		-0.82366650390625	-2.463717529296875	0		1.2301162109375	-0.7314239501953125	0		3.11058984375	-0.07333596038818359	0		4.63865771484375	-0.08234636688232422	0		5.64110888671875	0.1706276550292969	0		-0.041574859619140626	5.99519580078125	0		
-0.0015875999927520753	0.004211049079895019	0		0.481769775390625	-2.38537109375	0		-1.0661317138671875	-0.01865497016906738	0		-0.799714111328125	-2.461548583984375	0		1.2300499267578124	-0.7318799438476562	0		3.08829931640625	-0.08744657897949219	0		4.6386025390625	-0.0828593978881836	0		5.6600380859375	0.1687742919921875	0		-0.008414194107055665	6.00119775390625	0		
-7.836840152740479E-4	-0.004207639217376709	0		0.43663381958007813	-2.388012451171875	0		-1.0661915283203125	-0.01904360580444336	0		-0.825887939453125	-2.466496826171875	0		1.2299805908203125	-0.7322991333007812	0		3.095271484375	-0.0860101318359375	0		4.64266064453125	-0.07639315032958985	0		5.65098193359375	0.16844963073730468	0		-0.07560586547851562	5.988939453125	0		
